<?xml version="1.0" encoding="UTF-8"?>
<svg width="200" height="200" viewBox="0 0 24 24" xmlns="http://www.w3.org/2000/svg" fill="none">
  <g fill="#3DDC84">
    <rect x="3" y="7" width="18" height="10" rx="2" />
    <rect x="7" y="3" width="2" height="3" rx="1" />
    <rect x="15" y="3" width="2" height="3" rx="1" />
    <circle cx="9" cy="11.5" r="1.25" fill="#0B3" />
    <circle cx="15" cy="11.5" r="1.25" fill="#0B3" />
    <rect x="5" y="15" width="3" height="1.5" rx="0.5" fill="#2FBF6F" />
    <rect x="16" y="15" width="3" height="1.5" rx="0.5" fill="#2FBF6F" />
  </g>
  <path d="M8 7c0-.552.448-1 1-1h6c.552 0 1 .448 1 1" stroke="#2AA76A" stroke-width="0.6" stroke-linecap="round" stroke-linejoin="round" />
  <path d="M6.2 4.5 5 3" stroke="#2AA76A" stroke-width="0.8" stroke-linecap="round" />
  <path d="M17.8 4.5 19 3" stroke="#2AA76A" stroke-width="0.8" stroke-linecap="round" />
  <rect x="8.5" y="10.5" width="7" height="2" rx="0.5" fill="#fff" opacity="0.06" />
</svg>
