<svg xmlns="http://www.w3.org/2000/svg" viewBox="0 0 260 64" width="260" height="64" role="img" aria-label="cTraX Logo">
  <defs>
    <!-- Main brand gradient -->
    <linearGradient id="gBrand" x1="0" y1="0" x2="1" y2="1">
      <stop offset="0%" stop-color="#2563eb"/>
      <stop offset="100%" stop-color="#22c55e"/>
    </linearGradient>
    <!-- Accent gradient for text -->
    <linearGradient id="gText" x1="0" y1="0" x2="1" y2="0">
      <stop offset="0%" stop-color="#0ea5e9"/>
      <stop offset="50%" stop-color="#6366f1"/>
      <stop offset="100%" stop-color="#22c55e"/>
    </linearGradient>
    <!-- Soft glow for glyph -->
    <filter id="glow" x="-40%" y="-40%" width="180%" height="180%">
      <feGaussianBlur stdDeviation="2" result="b"/>
      <feMerge>
        <feMergeNode in="b"/>
        <feMergeNode in="SourceGraphic"/>
      </feMerge>
    </filter>
    <!-- Drop shadow for wordmark -->
    <filter id="dropshadow" x="-20%" y="-20%" width="160%" height="160%">
      <feOffset dx="0" dy="2"/>
      <feGaussianBlur stdDeviation="2" result="blur"/>
      <feColorMatrix in="blur" type="matrix" values="0 0 0 0 0  0 0 0 0 0  0 0 0 0 0  0 0 0 .35 0"/>
      <feBlend in2="SourceGraphic" mode="normal"/>
    </filter>
  </defs>

  <!-- Left rounded badge with bus glyph -->
  <g transform="translate(4,4)">
    <rect x="0" y="0" rx="14" width="56" height="56" fill="url(#gBrand)"/>
    <!-- Bus glyph -->
    <g transform="translate(10,12)" fill="#fff" filter="url(#glow)">
      <rect x="0" y="4" width="36" height="22" rx="4"/>
      <rect x="4" y="8" width="28" height="8" rx="2" fill="#e2e8f0"/>
      <circle cx="10" cy="30" r="5"/>
      <circle cx="26" cy="30" r="5"/>
      <rect x="28" y="18" width="6" height="6" rx="1"/>
    </g>
    <!-- Route arc highlight -->
    <path d="M-2 42 C 22 6, 50 6, 74 42" fill="none" stroke="#ffffff" stroke-width="5" stroke-linecap="round" opacity="0.45"/>
    <circle cx="74" cy="42" r="4" fill="#ffffff" opacity="0.95"/>
  </g>

  <!-- Wordmark: cTraX -->
  <g transform="translate(76,14)" filter="url(#dropshadow)">
    <!-- Background pill for subtle contrast at small sizes -->
    <rect x="-6" y="-2" width="182" height="38" rx="10" fill="#0f172a" opacity="0.06"/>
    <text x="0" y="26" font-family="Poppins, Inter, Segoe UI, Arial, sans-serif" font-size="28" font-weight="800" fill="url(#gText)" letter-spacing="0.5">
      cTra<tspan fill="#22c55e">X</tspan>
    </text>
    <!-- Subtle stroke to improve legibility on light backgrounds -->
    <text x="0" y="26" font-family="Poppins, Inter, Segoe UI, Arial, sans-serif" font-size="28" font-weight="800" fill="none" stroke="#0f172a" stroke-opacity="0.2" stroke-width="0.8" letter-spacing="0.5">
      cTraX
    </text>
  </g>
</svg>