<svg xmlns="http://www.w3.org/2000/svg" viewBox="0 0 1600 700" width="1600" height="700">
  <defs>
    <linearGradient id="g3" x1="0" y1="0" x2="1" y2="1">
      <stop offset="0%" stop-color="#22c55e"/>
      <stop offset="100%" stop-color="#f59e0b"/>
    </linearGradient>
  </defs>
  <rect width="1600" height="700" fill="url(#g3)"/>
  <!-- dashboard cluster -->
  <g transform="translate(220,150)">
    <rect x="0" y="0" width="520" height="360" rx="18" fill="#0f172a"/>
    <rect x="24" y="24" width="472" height="80" rx="10" fill="#1f2937"/>
    <rect x="24" y="120" width="472" height="200" rx="12" fill="#111827"/>
    <rect x="24" y="330" width="240" height="18" rx="9" fill="#334155"/>
    <rect x="260" y="330" width="120" height="18" rx="9" fill="#334155"/>
    <!-- route line -->
    <path d="M64 200 C 180 160, 260 220, 420 160" stroke="#10b981" stroke-width="10" fill="none"/>
    <circle cx="64" cy="200" r="12" fill="#f59e0b"/>
    <circle cx="420" cy="160" r="12" fill="#ef4444"/>
  </g>
  <!-- caption -->
  <g transform="translate(920,170)">
    <rect x="0" y="0" width="560" height="120" rx="16" fill="rgba(255,255,255,0.9)"/>
    <text x="28" y="66" font-family="Inter,Segoe UI,Arial" font-size="44" font-weight="700" fill="#0f172a">Driver-friendly tools</text>
    <text x="28" y="102" font-family="Inter,Segoe UI,Arial" font-size="24" fill="#334155">Start sharing • Follow the route</text>
  </g>
</svg>